<svg xmlns="http://www.w3.org/2000/svg" width="19.355" height="20.904" viewBox="0 0 19.355 20.904">
  <g id="Grupo_12377" data-name="Grupo 12377" transform="translate(12892.492 -5394.548)">
    <g id="idea-2" transform="translate(-12894.492 5394.548)">
      <path id="Trazado_4000" data-name="Trazado 4000" d="M16.581,8a6.58,6.58,0,0,0-2.323,12.736v3.523a.387.387,0,0,0,.387.387h.387v.774a.387.387,0,0,0,.387.387h2.323a.387.387,0,0,0,.387-.387v-.774h.387a.387.387,0,0,0,.387-.387V20.736A6.58,6.58,0,0,0,16.581,8Zm1.161,15.872a.387.387,0,0,0-.387.387v.774H15.807v-.774a.387.387,0,0,0-.387-.387h-.387V21.936h3.1v1.936Zm.653-3.777a.387.387,0,0,0-.266.368v.7h-3.1v-.7a.387.387,0,0,0-.266-.368,5.807,5.807,0,1,1,3.63,0Z" transform="translate(-4.903 -4.903)" fill="#444"/>
      <path id="Trazado_4001" data-name="Trazado 4001" d="M26.387,2.323a.387.387,0,0,0,.387-.387V.387a.387.387,0,0,0-.774,0V1.936A.387.387,0,0,0,26.387,2.323Z" transform="translate(-14.709)" fill="#939393"/>
      <path id="Trazado_4002" data-name="Trazado 4002" d="M47.936,24H46.387a.387.387,0,1,0,0,.774h1.548a.387.387,0,0,0,0-.774Z" transform="translate(-26.967 -14.709)" fill="#939393"/>
      <path id="Trazado_4003" data-name="Trazado 4003" d="M3.936,24H2.387a.387.387,0,0,0,0,.774H3.936a.387.387,0,0,0,0-.774Z" transform="translate(0 -14.709)" fill="#939393"/>
      <path id="Trazado_4004" data-name="Trazado 4004" d="M41.351,7.143,40.256,8.237a.387.387,0,1,0,.547.547L41.9,7.69a.387.387,0,0,0-.547-.547Z" transform="translate(-23.377 -4.308)" fill="#939393"/>
      <path id="Trazado_4005" data-name="Trazado 4005" d="M10.237,38.256,9.142,39.351a.387.387,0,1,0,.547.547L10.784,38.8a.387.387,0,0,0-.547-.547Z" transform="translate(-4.308 -23.377)" fill="#939393"/>
      <path id="Trazado_4006" data-name="Trazado 4006" d="M40.8,38.256a.387.387,0,0,0-.547.547L41.351,39.9a.387.387,0,0,0,.547-.547Z" transform="translate(-23.377 -23.377)" fill="#939393"/>
      <path id="Trazado_4007" data-name="Trazado 4007" d="M10.237,8.784a.387.387,0,0,0,.547-.547L9.69,7.142a.387.387,0,1,0-.547.547Z" transform="translate(-4.308 -4.308)" fill="#939393"/>
      <path id="Trazado_4008" data-name="Trazado 4008" d="M19.645,13A4.651,4.651,0,0,0,15,17.645a.387.387,0,1,0,.774,0,3.876,3.876,0,0,1,3.871-3.871.387.387,0,0,0,0-.774Z" transform="translate(-7.968 -7.968)" fill="#dd141d"/>
    </g>
  </g>
</svg>
